<svg width="250" height="43" viewBox="0 0 250 43" fill="none" xmlns="http://www.w3.org/2000/svg">
<path d="M45.0865 15.1317C48.1815 25.9174 40.7547 37.512 28.4982 41.029C16.2418 44.546 3.79705 38.6537 0.702073 27.868C-2.3929 17.0823 5.03392 5.48774 17.2903 1.97072C29.5468 -1.5463 41.9915 4.34609 45.0865 15.1317Z" fill="#B6FF52"/>
<path d="M30.9624 19.689C32.7122 20.6992 32.7122 23.2249 30.9624 24.2351L20.1355 30.4861C18.3856 31.4963 16.1984 30.2335 16.1984 28.213V15.7111C16.1984 13.6906 18.3856 12.4278 20.1355 13.438L30.9624 19.689Z" fill="#064BB5"/>
<path d="M75.2503 35.3394C83.1936 35.3394 86.3634 31.6848 86.3634 27.6199C86.3634 24.189 84.3496 21.4667 78.7558 20.5717L71.7449 19.4529C69.6565 19.08 68.8361 18.5579 68.8361 17.1035C68.8361 15.5 70.0667 14.7169 74.0943 14.7169C79.0541 14.7169 80.2848 15.7237 80.2848 18.1104V18.6325H85.9159V18.4088C85.9159 13.1506 82.3358 9.60784 74.6537 9.60784C66.2629 9.60784 63.205 13.5608 63.205 17.3273C63.205 21.3921 65.8527 23.6297 70.3278 24.3382L77.3387 25.3451C79.9119 25.7926 80.7696 26.352 80.7696 27.881C80.7696 29.5591 79.7254 30.2304 75.2503 30.2304C70.1786 30.2304 69.0226 29.2981 69.0226 26.9859V26.3147H63.4288V26.5384C63.4288 32.356 67.6801 35.3394 75.2503 35.3394Z" fill="#FFFEFF"/>
<path d="M98.2684 35.3394C104.645 35.3394 108.934 31.5356 108.934 25.6434C108.934 19.6767 104.645 15.9102 98.2684 15.9102C91.8914 15.9102 87.6029 19.6767 87.6029 25.6434C87.6029 31.5356 91.8914 35.3394 98.2684 35.3394ZM98.2684 30.3795C94.4646 30.3795 93.1594 28.9251 93.1594 25.6434C93.1594 22.3617 94.4646 20.8328 98.2684 20.8328C102.035 20.8328 103.377 22.3617 103.377 25.6434C103.377 28.9251 102.035 30.3795 98.2684 30.3795Z" fill="#FFFEFF"/>
<path d="M118.608 35.3394C123.53 35.3394 125.805 32.3933 126.29 29.2608H126.588V34.9665H131.809V16.2831H126.215V25.7553C126.215 28.9251 124.91 30.3422 121.256 30.3422C117.713 30.3422 116.445 29.0743 116.445 26.0536V16.2831H110.851V27.9183C110.851 32.095 113.35 35.3394 118.608 35.3394Z" fill="#FFFEFF"/>
<path d="M139.933 34.9665V25.5316C139.933 22.3617 141.201 20.9446 144.744 20.9446C148.175 20.9446 149.405 22.2126 149.405 25.1959V34.9665H154.999V23.3313C154.999 19.1919 152.575 15.9102 147.466 15.9102C142.581 15.9102 140.343 18.8936 139.859 22.0261H139.523V16.2831H134.339V34.9665H139.933Z" fill="#FFFEFF"/>
<path d="M165.852 35.3394C170.141 35.3394 172.602 33.4748 173.311 29.7829H173.609V34.9665H178.83V9.98076H173.236V21.243H172.901C172.267 18.1104 169.992 15.9102 165.554 15.9102C159.998 15.9102 156.828 19.6767 156.828 25.6434C156.828 31.5356 160.035 35.3394 165.852 35.3394ZM162.496 25.6434C162.496 22.2126 164.174 21.0192 167.754 21.0192C171.334 21.0192 173.236 22.2126 173.236 25.457V25.7553C173.236 28.9997 171.297 30.2304 167.754 30.2304C164.174 30.2304 162.496 29.037 162.496 25.6434Z" fill="#FFFEFF"/>
<path d="M186.643 34.9665V29.7829H186.979C187.65 33.4748 190.112 35.3394 194.438 35.3394C200.255 35.3394 203.425 31.5356 203.425 25.6434C203.425 19.6767 200.292 15.9102 194.699 15.9102C190.261 15.9102 187.986 18.1104 187.352 21.243H187.054V9.98076H181.46V34.9665H186.643ZM187.054 25.7553V25.457C187.054 22.2126 188.918 21.0192 192.536 21.0192C196.116 21.0192 197.757 22.2126 197.757 25.6434C197.757 29.037 196.116 30.2304 192.498 30.2304C188.956 30.2304 187.054 28.9997 187.054 25.7553Z" fill="#FFFEFF"/>
<path d="M215.378 35.3394C221.755 35.3394 226.043 31.5356 226.043 25.6434C226.043 19.6767 221.755 15.9102 215.378 15.9102C209.001 15.9102 204.712 19.6767 204.712 25.6434C204.712 31.5356 209.001 35.3394 215.378 35.3394ZM215.378 30.3795C211.574 30.3795 210.269 28.9251 210.269 25.6434C210.269 22.3617 211.574 20.8328 215.378 20.8328C219.144 20.8328 220.487 22.3617 220.487 25.6434C220.487 28.9251 219.144 30.3795 215.378 30.3795Z" fill="#FFFEFF"/>
<path d="M233.107 34.9665L237.917 28.7014H238.216L243.176 34.9665H250L242.542 25.7553V25.4197L250 16.2831H243.25L238.439 22.5855H238.141L233.181 16.2831H226.357L233.815 25.5316V25.8299L226.357 34.9665H233.107Z" fill="#FFFEFF"/>
</svg>
