<svg width="820" height="135" viewBox="0 0 820 135" fill="none" xmlns="http://www.w3.org/2000/svg">
<path d="M147.884 46.5795C158.035 82.0124 133.675 120.103 93.4742 131.657C53.2732 143.211 12.4543 123.853 2.3028 88.4205C-7.84873 52.9876 16.5112 14.8971 56.7123 3.343C96.9134 -8.21108 137.732 11.1466 147.884 46.5795Z" fill="#B6FF52"/>
<path d="M101.557 61.5508C107.296 64.8697 107.296 73.1669 101.557 76.4858L66.0443 97.0214C60.3049 100.34 53.1307 96.1917 53.1307 89.5539V48.4827C53.1307 41.845 60.3049 37.6964 66.0443 41.0152L101.557 61.5508Z" fill="#064BB5"/>
<path d="M246.821 112.965C272.875 112.965 283.272 100.959 283.272 87.6055C283.272 76.3344 276.667 67.3911 258.319 64.4508L235.323 60.7755C228.473 59.5503 225.782 57.8352 225.782 53.0572C225.782 47.7892 229.819 45.2165 243.029 45.2165C259.298 45.2165 263.334 48.5243 263.334 56.365V58.0802H281.804V57.3451C281.804 40.071 270.062 28.4324 244.864 28.4324C217.342 28.4324 207.312 41.4186 207.312 53.7923C207.312 67.1461 215.997 74.4968 230.675 76.8245L253.671 80.1323C262.111 81.6024 264.924 83.4401 264.924 88.4631C264.924 93.9761 261.499 96.1813 246.821 96.1813C230.186 96.1813 226.394 93.1185 226.394 85.5228V83.3176H208.046V84.0527C208.046 103.164 221.991 112.965 246.821 112.965Z" fill="#FFFEFF"/>
<path d="M322.32 112.965C343.237 112.965 357.303 100.469 357.303 81.1124C357.303 61.5105 343.237 49.1368 322.32 49.1368C301.404 49.1368 287.337 61.5105 287.337 81.1124C287.337 100.469 301.404 112.965 322.32 112.965ZM322.32 96.6714C309.844 96.6714 305.563 91.8934 305.563 81.1124C305.563 70.3314 309.844 65.3084 322.32 65.3084C334.674 65.3084 339.078 70.3314 339.078 81.1124C339.078 91.8934 334.674 96.6714 322.32 96.6714Z" fill="#FFFEFF"/>
<path d="M389.034 112.965C405.18 112.965 412.641 103.287 414.231 92.996H415.21V111.74H432.334V50.362H413.987V81.4799C413.987 91.8934 409.705 96.5489 397.718 96.5489C386.098 96.5489 381.939 92.3835 381.939 82.46V50.362H363.592V88.5856C363.592 102.307 371.787 112.965 389.034 112.965Z" fill="#FFFEFF"/>
<path d="M458.981 111.74V80.7449C458.981 70.3314 463.14 65.6759 474.76 65.6759C486.013 65.6759 490.05 69.8413 490.05 79.6423V111.74H508.397V73.5167C508.397 59.9179 500.447 49.1368 483.689 49.1368C467.665 49.1368 460.326 58.9378 458.736 69.2288H457.635V50.362H440.633V111.74H458.981Z" fill="#FFFEFF"/>
<path d="M543.996 112.965C558.063 112.965 566.136 106.84 568.46 94.7112H569.438V111.74H586.563V29.6575H568.215V66.656H567.114C565.035 56.365 557.573 49.1368 543.017 49.1368C524.792 49.1368 514.395 61.5105 514.395 81.1124C514.395 100.469 524.914 112.965 543.996 112.965ZM532.987 81.1124C532.987 69.8413 538.492 65.9209 550.234 65.9209C561.977 65.9209 568.215 69.8413 568.215 80.4998V81.4799C568.215 92.1384 561.854 96.1813 550.234 96.1813C538.492 96.1813 532.987 92.2609 532.987 81.1124Z" fill="#FFFEFF"/>
<path d="M612.191 111.74V94.7112H613.291C615.493 106.84 623.566 112.965 637.755 112.965C656.837 112.965 667.234 100.469 667.234 81.1124C667.234 61.5105 656.959 49.1368 638.611 49.1368C624.055 49.1368 616.594 56.365 614.515 66.656H613.536V29.6575H595.188V111.74H612.191ZM613.536 81.4799V80.4998C613.536 69.8413 619.652 65.9209 631.517 65.9209C643.259 65.9209 648.641 69.8413 648.641 81.1124C648.641 92.2609 643.259 96.1813 631.394 96.1813C619.774 96.1813 613.536 92.1384 613.536 81.4799Z" fill="#FFFEFF"/>
<path d="M706.439 112.965C727.355 112.965 741.422 100.469 741.422 81.1124C741.422 61.5105 727.355 49.1368 706.439 49.1368C685.522 49.1368 671.456 61.5105 671.456 81.1124C671.456 100.469 685.522 112.965 706.439 112.965ZM706.439 96.6714C693.962 96.6714 689.681 91.8934 689.681 81.1124C689.681 70.3314 693.962 65.3084 706.439 65.3084C718.793 65.3084 723.196 70.3314 723.196 81.1124C723.196 91.8934 718.793 96.6714 706.439 96.6714Z" fill="#FFFEFF"/>
<path d="M764.59 111.74L780.369 91.1583H781.347L797.616 111.74H820L795.536 81.4799V80.3773L820 50.362H797.86L782.081 71.0664H781.103L764.835 50.362H742.45L766.914 80.7449V81.725L742.45 111.74H764.59Z" fill="#FFFEFF"/>
</svg>
